<svg className="logo" data-name="logo" xmlns="http://www.w3.org/2000/svg" viewBox="0 0 569 210.5">
  <defs>
    <linearGradient id="rainbowGrad" x1="10%" y1="5%" x2="120%" y2="20%">
      <stop className="stop1" offset="0%" />
      <stop className="stop2" offset="16%" />
      <stop className="stop3" offset="33%" />
      <stop className="stop4" offset="50%" />
      <stop className="stop5" offset="67%" />
      <stop className="stop6" offset="84%" />
    </linearGradient>
  </defs>
  <g id="ball_copy_2" data-name="ball copy 2" fill="white">
    <circle class="logo-color" cx="468" cy="102" r="94" fill="#1898d5" />
    <circle class="logo-white" cx="486.82" cy="92.27" r="56.01" fill="white" />
    <circle class="logo-stroke" cx="486.82" cy="92.27" r="62.73"
      style="stroke: #ffffff; stroke-width: 2px; stroke-miterlimit: 10; fill: none;" />
    <g id="B7">
      <path class="logo-dark" fill="#323232"
        d="m489.5,52.51c8.5,0,12.43,3.55,12.43,8.79,0,3.98-1.87,6.43-5.81,7.82v.1c4.46,1.01,6.67,3.65,6.67,7.97,0,5.81-4.61,9.5-12.48,9.5h-14.16v-34.18h13.34Zm-5.18,13.83h4.32c3.7,0,5.28-1.2,5.28-3.74s-1.54-3.65-4.99-3.65h-4.61v7.39Zm0,13.87h4.51c3.89,0,5.42-1.2,5.42-3.79,0-2.74-1.58-3.98-5.57-3.98h-4.37v7.78Z" />
      <path class="logo-dark" fill="#323232"
        d="m499.77,103.01c-4.8,6.72-8.54,16.08-10.27,25.68h-8.83c2.26-10.71,6.77-20.11,11.14-25.54h-17.23v-6.82h25.2v6.67Z" />
    </g>
  </g>
  <g id="bingo_copy" data-name="bingo copy" fill="#323232">
    <g id="Bingo">
      <path class="logo-white"
        d="m41.55,76.3c.97-.04,1.81-.03,2.5.04l2.06.2c.14,1.4-.48,2.73-1.85,3.99-1.37,1.26-3.01,2.35-4.9,3.27-1.9.93-3.78,1.68-5.64,2.26-1.86.58-3.28.9-4.26.94-1.26.16-2.36-.05-3.27-.63-.92-.57-1.68-1.31-2.28-2.2-1.88-3.52-2.49-7.25-1.82-11.22.66-3.96,2.05-7.85,4.16-11.68,2.11-3.82,4.68-7.42,7.72-10.81,3.04-3.38,5.98-6.19,8.84-8.41,7.2-5.41,14.74-9.78,22.63-13.1,7.89-3.32,16.15-5.75,24.77-7.27,3.94-.58,8.27-1.1,12.96-1.55,4.7-.44,9.32-.55,13.89-.31,4.56.24,8.84.86,12.84,1.88,4,1.02,7.41,2.67,10.25,4.96,2.83,2.29,4.83,5.3,5.99,9.02,1.16,3.73,1.13,8.38-.11,13.95-1.56,4.57-3.55,8.58-5.97,12.02-2.42,3.45-5.09,6.55-7.99,9.32-2.91,2.77-5.9,5.29-8.97,7.56-3.07,2.27-5.96,4.45-8.66,6.55,4.18-.15,8.32.47,12.42,1.84,4.1,1.37,7.81,3.26,11.11,5.67,3.31,2.41,6.11,5.32,8.42,8.74,2.3,3.42,3.75,7.1,4.34,11.05.73,8.13-.57,15.81-3.92,23.05-3.35,7.25-7.86,13.96-13.53,20.14-5.67,6.18-12.01,11.74-19.02,16.68-7.01,4.94-13.81,9.17-20.41,12.69-5.44,3.08-11.95,6.12-19.54,9.13-7.58,3.01-15.28,5.35-23.08,7.02-7.8,1.67-15.21,2.44-22.2,2.31-7-.13-12.7-1.86-17.1-5.21-2.45-1.91-4.18-4.13-5.18-6.65-1-2.53-1.38-5.07-1.13-7.61s1.08-5.07,2.51-7.57c1.42-2.5,3.28-4.82,5.58-6.96,4.76-4.68,9.94-8.68,15.55-12.02,5.6-3.34,11.45-6.31,17.54-8.91,5.22-2.27,10.57-4.07,16.05-5.41,5.48-1.34,10.97-2.5,16.49-3.49,4.8-.78,9.42-1.23,13.88-1.35.41.04.83.05,1.25.02.42-.03.76.04,1.02.2.69.07,1.08.31,1.18.74.1.43-.09.9-.55,1.4-.3.25-.71.56-1.23.92-.52.37-1,.67-1.44.9-5.07,2.14-10.15,3.98-15.22,5.49-5.08,1.52-10.15,3.35-15.22,5.49-4.34,1.8-8.69,3.67-13.05,5.6-4.36,1.94-8.59,4.06-12.7,6.36-4.12,2.31-7.97,4.85-11.58,7.62-3.6,2.77-6.82,5.82-9.64,9.16-.82,1.31-1.43,2.53-1.82,3.68-.39,1.14.13,2.2,1.56,3.17,3.3,1.71,7.73,2.28,13.27,1.71,5.54-.57,11.42-1.77,17.64-3.59,6.22-1.82,12.31-4.08,18.26-6.76,5.95-2.68,10.94-5.36,14.95-8.02,6.74-3.65,13.26-8.5,19.55-14.55,6.28-6.05,11.42-12.46,15.42-19.22,3.99-6.76,6.34-13.41,7.05-19.94.71-6.53-1.22-12.03-5.78-16.5-1.24-1.51-2.86-2.68-4.87-3.5s-4.17-1.41-6.49-1.78c-2.33-.36-4.68-.49-7.05-.38-2.37.12-4.41.37-6.12.76-3.28.79-6.54,1.9-9.8,3.31-3.26,1.42-6.39,3.16-9.36,5.23.31-3.16,1.69-6.29,4.15-9.39,2.45-3.09,5.34-6.04,8.67-8.84,3.33-2.8,6.74-5.42,10.25-7.85,3.5-2.44,6.38-4.59,8.65-6.45,2.9-2.63,5.67-5.83,8.33-9.6,2.66-3.77,4.59-7.57,5.8-11.41,1.21-3.84,1.46-7.46.75-10.86-.71-3.4-2.91-6.19-6.58-8.35-2.77-1.52-5.87-2.45-9.31-2.78s-6.95-.26-10.54.22c-3.59.48-7.14,1.25-10.64,2.3-3.51,1.05-6.7,2.13-9.59,3.23-4.18,1.54-8.24,3.67-12.19,6.41-3.95,2.74-7.38,5.91-10.3,9.52-2.92,3.6-5.14,7.49-6.66,11.64-1.52,4.16-2.07,8.41-1.66,12.75Zm1.44,68.47c-3,.82-6.59,2.45-10.79,4.88-4.2,2.44-8.46,5.18-12.78,8.23.48-3.56,1.68-8.38,3.6-14.44,1.91-6.06,4.09-12.38,6.54-18.95,2.44-6.56,4.9-12.85,7.36-18.86,2.46-6.01,4.49-10.81,6.09-14.41,4.11-7.93,8.25-15.55,12.44-22.85,4.18-7.3,9.49-13.97,15.91-20.01,3.97-3.64,8.75-5.74,14.37-6.31,1.83-.24,3.55-.07,5.16.5,1.76.45,3.1,1.34,4.01,2.68.91,1.34.99,2.95.26,4.82-.07.69-.27,1.33-.6,1.92-.34.59-.68,1.29-1.04,2.09-.66,1.05-1.34,1.99-2.05,2.82-.71.84-1.38,1.71-2.03,2.61-5.69,7.08-10.83,14.15-15.4,21.2-4.58,7.05-8.71,14.15-12.39,21.29-3.69,7.14-7.05,14.28-10.11,21.41-3.06,7.13-5.91,14.25-8.54,21.35Z"
      />
      <g>
        <path class="logo-white"
          d="m190,136c0-2-2-1-2-1-2,1-2.16,2.4-4.84,5.16-2.69,2.76-5.1,4.39-7.26,4.88-1.84.47-3.08.1-3.71-1.11-.63-1.2-.91-2.62-.85-4.24.56-4.29,1.69-8.65,3.38-13.09,1.7-4.44,3.37-9.15,5.02-14.14.66-1.97.91-3.86.75-5.67,0-1.11-.27-2.09-.81-2.95-.55-.86-1.19-1.56-1.91-2.1-.73-.54-1.58-.94-2.54-1.21-.97-.27-1.86-.36-2.7-.29-3.84.34-6.87,2.13-9.1,5.35-.46.75-.89,1.52-1.29,2.31-.4.79-.77,1.61-1.12,2.44-1.94,5.22-3.68,10.34-5.22,15.37-1.54,5.03-2.11,10.4-1.7,16.12.16,2.91.9,5.44,2.25,7.59,1.34,2.15,3.08,3.78,5.22,4.91,2.14,1.12,4.56,1.61,7.28,1.47,2.71-.14,5.5-1.05,8.39-2.72,2.67-1.75,5.69-3.79,8.1-6.93q1.66-2.16,2.66-4.16c2-4,2-6,2-6h0Z"
        />
        <path class="logo-white"
          d="m165.44,93.57c1.4,1.59,3.06,2.37,5,2.35,1.93-.02,3.82-.57,5.66-1.64,1.84-1.07,3.47-2.5,4.88-4.29,1.41-1.79,2.29-3.61,2.65-5.46.52-3.58-.24-5.88-2.27-6.91-2.03-1.03-4.84-1.18-8.44-.46-2.15.49-3.98,1.39-5.49,2.68-1.51,1.3-2.61,2.73-3.31,4.3-.7,1.58-.97,3.19-.82,4.84.15,1.65.86,3.18,2.14,4.58Z" />
      </g>
      <path class="logo-white"
        d="m243.17,88.54c2.88,1.76,4.75,3.91,5.6,6.46.86,2.55,1.05,5.38.6,8.5-.46,3.12-1.31,6.47-2.56,10.06s-2.55,7.21-3.9,10.86c-1.35,3.65-2.54,7.29-3.58,10.91-1.04,3.63-1.47,7.04-1.28,10.25.28,1.99,1.35,3.08,3.2,3.27,1.85.19,3.66-.3,5.44-1.47.8-.48,1.53-.99,2.22-1.56.68-.57,1.36-1.13,2.05-1.7.4-.24.74-.55,1.02-.92.28-.38.67-.64,1.19-.79.53.05.71.34.55.86-.36.74-.65,1.47-.9,2.2-.25.73-.61,1.42-1.07,2.06-.46.75-.95,1.39-1.47,1.95-.53.55-1.03,1.1-1.5,1.65-1.54,1.55-3.57,2.79-6.11,3.72-2.53.93-4.75,1.28-6.66,1.05-5.26-.24-8.88-1.83-10.87-4.78-1.99-2.95-2.97-6.6-2.94-10.93.03-4.34.71-9.01,2.05-14.03,1.33-5.01,2.74-9.7,4.24-14.07s2.68-8.06,3.57-11.06c.88-3,.89-4.67.03-5-1.98.08-4.1,1.02-6.34,2.84-2.25,1.82-4.41,3.98-6.49,6.48-2.08,2.51-3.93,5.19-5.56,8.06s-2.81,5.45-3.55,7.73c-1.78,3.59-3.26,6.92-4.45,10.01-1.19,3.08-2.41,6.45-3.65,10.09-.34.84-.75,1.56-1.22,2.15-.47.6-1.11,1.03-1.92,1.31-1.95.48-3.68.43-5.19-.14-1.76-.95-3-2.53-3.72-4.74-.72-2.21-1.14-4.56-1.26-7.08-.12-2.51-.07-4.96.13-7.35.21-2.39.4-4.3.59-5.73.45-3.17,1.03-6.37,1.73-9.61.71-3.24,1.48-6.34,2.31-9.29.84-2.95,1.8-5.66,2.88-8.13,1.09-2.47,2.24-4.51,3.46-6.13,1.45-2.55,3.39-4.24,5.83-5.06,1.83-.57,3.45-.63,4.85-.21,1.4.43,2.43,1.47,3.11,3.13.83,2.25,1.02,4.37.57,6.38s-1,4.05-1.65,6.12c-.42,1.15-.8,2.17-1.14,3.05-.34.89-.68,1.78-1.02,2.66-.34.89-.66,1.77-.94,2.66-.29.88-.59,1.94-.89,3.18,2.16-3.92,4.72-7.51,7.67-10.75,2.95-3.24,6.02-5.83,9.2-7.78,3.18-1.95,6.32-3.08,9.43-3.41,3.11-.33,5.89.36,8.35,2.05Z"
      />
      <path class="logo-white"
        d="m285.76,157.2c.05.6-.11,1.45-.48,2.54s-.83,2.19-1.35,3.3c-.53,1.11-1.07,2.11-1.61,3.02-.55.9-.96,1.52-1.25,1.85-3.45-1.11-6.99-1.52-10.63-1.25-3.64.27-6.96,1.15-9.97,2.63-3.01,1.48-5.5,3.49-7.47,6.04-1.97,2.54-2.96,5.58-2.96,9.12.76,2.66,2.28,4.46,4.57,5.42,2.28.95,4.76,1.11,7.42.47,4.89-1.55,9.05-3.81,12.5-6.79,3.45-2.98,6.67-7.03,9.67-12.14,1.6-3.17,3.05-6.58,4.35-10.22,1.3-3.65,2.41-7.35,3.33-11.12.92-3.77,1.74-7.52,2.45-11.26.71-3.74,1.33-7.36,1.86-10.83-2.01,2.1-4.08,4.17-6.2,6.23-2.12,2.06-4.28,3.99-6.47,5.8-2.19,1.81-4.44,3.37-6.73,4.69-2.29,1.32-4.61,2.28-6.96,2.89-1.73.56-3.51.87-5.33.93-1.83.06-3.54-.11-5.15-.52-1.61-.41-3.05-1.09-4.34-2.03-1.29-.94-2.21-2.15-2.76-3.61-1.08-2.73-1.65-5.6-1.71-8.62-.06-3.02.25-6.02.92-9.01.68-2.98,1.67-5.95,2.98-8.89,1.31-2.94,2.74-5.69,4.29-8.25,3.87-5.89,8.76-11.15,14.69-15.76,5.92-4.61,12.1-7.76,18.55-9.45,2.35-.61,4.61-.86,6.76-.75,2.15.11,4.18.79,6.07,2.03.55.36,1.1.66,1.65.91.54.25,1.09.56,1.65.91,3.25,2.43,4.76,5.78,4.51,10.04-.12,1.02-.26,2.04-.43,3.07-.17,1.02-.52,2.07-1.06,3.12-.72,1.27-1.38,1.84-1.97,1.69-.59-.15-1.03-.67-1.31-1.55-.44-1.37-.79-2.68-1.06-3.92-.27-1.24-.86-2.32-1.78-3.25-.62-1.05-1.4-1.62-2.35-1.68-.95-.07-1.88.04-2.8.33-2.94,1.07-5.87,2.59-8.78,4.57-2.91,1.98-5.42,4.07-7.53,6.27-2,2.2-4,4.7-6,7.5-2,2.8-3.71,5.65-5.12,8.55-1.42,2.9-2.45,5.74-3.09,8.52-.64,2.78-.61,5.25.11,7.4.63,1.26,1.65,1.74,3.03,1.47s2.83-.88,4.31-1.82c1.49-.94,2.91-2,4.27-3.18,1.36-1.18,2.33-2.05,2.91-2.6,3.2-2.81,6.4-5.72,9.58-8.72,3.18-3.01,6.06-5.38,8.63-7.12,1.07-.9,2.22-1.46,3.46-1.67,1.24-.21,2.49-.27,3.75-.18,1.58.16,2.44.99,2.58,2.49.46,1.67.76,3.26.9,4.76.15,2.91,0,5.9-.46,8.97-.46,3.07-1.03,6.09-1.7,9.08-.97,4.42-1.95,8.62-2.96,12.6-1.01,3.97-2.22,7.99-3.63,12.05,8.53,4.08,16.1,6.51,22.71,7.28,6.61.77,12.05.41,16.31-1.08,2.92-1.27,5.16-2.86,6.72-4.76,1.56-1.9,2.36-4.32,2.41-7.25,1.15,1.21,1.77,2.59,1.86,4.15.08,1.56-.22,3.12-.92,4.7-.7,1.58-1.69,3.1-2.97,4.58-1.28,1.48-2.61,2.68-3.99,3.61-2.67,1.75-5.73,2.98-9.17,3.69-3.44.71-7.11.99-10.99.83-3.89-.16-7.94-.71-12.16-1.64-4.22-.94-8.49-2.22-12.82-3.85-4.2,6.93-9.16,12.92-14.88,17.97-5.73,5.05-12.6,8.39-20.62,10.01-3.2.49-6.21.48-9.03-.03-2.82-.51-5.29-1.5-7.41-2.97-2.12-1.48-3.75-3.37-4.9-5.69-1.15-2.32-1.65-5.05-1.52-8.19.4-4.88,2.08-9.19,5.05-12.93,2.96-3.75,6.54-6.79,10.73-9.13,4.19-2.34,8.7-3.9,13.55-4.69,4.85-.79,9.41-.66,13.69.37Z"
      />
      <path class="logo-white"
        d="m317.53,118.71c1.47-6.33,4.4-12.41,8.8-18.25,2.15-2.76,4.58-5.24,7.3-7.43,2.72-2.19,5.68-3.81,8.87-4.86,1.9-.6,3.64-.78,5.22-.54.71.07,1.32.31,1.83.72.93.6.74,1.26-.55,1.97-1.94,1.07-3.77,2.89-5.48,5.47-1.71,2.58-3.17,5.51-4.37,8.78-1.2,3.27-2.11,6.64-2.72,10.11-.61,3.47-.85,6.68-.71,9.62.13,2.94.73,5.36,1.79,7.25,1.06,1.89,2.62,2.86,4.68,2.91,1.87-.41,3.7-1.52,5.51-3.34,1.8-1.82,3.45-4.06,4.96-6.74,1.5-2.68,2.82-5.66,3.96-8.94,1.14-3.29,2.03-6.56,2.67-9.82.64-3.26,1.02-6.39,1.15-9.39.12-3-.1-5.6-.66-7.78-.5-1.49-1.32-2.65-2.45-3.49-1.13-.83-2.39-1.41-3.77-1.74-1.38-.32-2.84-.42-4.36-.28-1.53.14-2.99.45-4.37.93-1.16.48-2.35,1.03-3.56,1.67-1.21.63-2.37,1.27-3.47,1.9-.19.08-.4.19-.63.33-.23.14-.45.21-.68.21-.39.16-.61.16-.68,0-.13-.3-.16-.52-.09-.63.46-.81.98-1.48,1.56-1.98,2.08-2.11,4.37-3.97,6.88-5.58,2.51-1.61,5.23-2.84,8.16-3.7,4.7-.95,8.61-.54,11.71,1.22,3.1,1.76,5.46,4.19,7.08,7.29,1.54,3.75,2.24,7.78,2.09,12.09-.15,4.31-1,8.64-2.55,12.99-1.55,4.35-3.71,8.6-6.48,12.73-2.77,4.14-6,7.91-9.7,11.31-2.56,2.31-5.39,4.17-8.49,5.57-3.1,1.41-6.17,2.34-9.22,2.79-3.04.45-5.88.36-8.51-.25-2.63-.62-4.71-1.82-6.24-3.6-2.52-2.81-4.09-5.88-4.72-9.19-.63-3.32-.54-6.75.26-10.31Z"
      />
    </g>
    <path
      id="_"
      data-name="!"
      class="logo-white"
      d="m388.04,116.72c1.51-.44,2.83-.52,3.95-.24,1.12.28,2.11.76,2.97,1.43,1.85,1.53,3.13,3.53,3.86,6.03,1.24,4.26.53,7.75-2.15,10.45-.89.9-2.07,1.56-3.53,1.99-3.37.98-6.14.79-8.34-.56-2.19-1.35-3.63-3.21-4.32-5.57-.82-2.82-.6-5.49.68-7.99,1.44-2.77,3.74-4.61,6.88-5.53Zm28.59-81.65c2.48-.53,4.61,1.82,3.82,4.24-3.51,10.69-6.69,21.41-9.52,32.15-3.13,11.87-6.24,23.8-9.32,35.79-.34,1.32-1.46,2.31-2.81,2.45-2.15.23-4.29.51-6.4.84-1.36.21-2.73.42-4.1.64-2.22.34-4.12-1.59-3.74-3.8,1.78-10.47,3.49-20.93,5.13-31.39,1.76-11.25,3.64-22.56,5.65-33.92.23-1.3,1.2-2.33,2.48-2.63s2.73-.64,4.29-.99c2.45-.55,4.89-1.12,7.33-1.72,2.44-.59,4.82-1.14,7.12-1.63.02,0,.05,0,.07-.01Z"
    />
  </g>
  <g fill="#323232">
    <path class="logo-text-color" d="m159.98,32.63h7.08v22.6h12.84v6h-19.92v-28.6Z" />
    <path class="logo-text-color"
      d="m182.7,32.63h21.68v5.84h-14.6v5.12h12.52v5.52h-12.52v6.12h14.84v6h-21.92v-28.6Z" />
    <path class="logo-text-color" d="m215.29,38.63h-8.32v-6h23.8v6h-8.4v22.6h-7.08v-22.6Z" />
    <path class="logo-text-color"
      d="m233.19,42.19c1.56-.48,2.84-1.84,2.84-3.6h-2.72v-5.96h5.96v5.24c0,2.08-.68,3.56-1.72,4.64-1.12,1.16-2.76,1.84-4.36,2v-2.32Z" />
    <path class="logo-text-color"
      d="m242.01,52.23h7.12c.32,2.88,2.2,4.08,5.6,4.08,2.32,0,4.6-.84,4.6-3,0-2.28-2.32-2.76-6.24-3.72-4.96-1.16-10.2-2.68-10.2-8.68s4.96-8.8,11.36-8.8,11,2.8,11.28,8.8h-6.92c-.28-2.2-1.96-3.44-4.6-3.44-2.48,0-4.12,1.08-4.12,2.68,0,2,2.2,2.48,6.48,3.44,5.32,1.24,10.12,2.88,10.12,9s-5.12,9.32-11.72,9.32c-7.6,0-12.6-3.36-12.76-9.68Z" />
    <path class="logo-text-color"
      d="m277.57,32.63h12.88c3.48,0,6.04.96,7.8,2.64,1.84,1.72,2.88,4.16,2.88,7.04,0,5.48-3.8,9.36-9.68,9.36h-6.68v9.56h-7.2v-28.6Zm12.44,13.44c2.56,0,4-1.52,4-3.8s-1.48-3.68-4-3.68h-5.24v7.48h5.24Z" />
    <path class="logo-text-color" d="m303.88,32.63h7.08v22.6h12.84v6h-19.92v-28.6Z" />
    <path class="logo-text-color"
      d="m335.96,32.63h7.28l10.32,28.6h-7.44l-1.68-5.16h-10l-1.64,5.16h-7.12l10.28-28.6Zm6.84,18.36l-2.16-6.92c-.48-1.48-1.12-4.04-1.12-4.04h-.08s-.68,2.56-1.16,4.04l-2.2,6.92h6.72Z" />
    <path class="logo-text-color"
      d="m360.25,50.67l-9.68-18.04h7.72l3.68,7.4c.96,1.96,1.88,4.36,1.88,4.36h.08s1-2.4,1.96-4.36l3.64-7.4h7.48l-9.68,18.04v10.56h-7.08v-10.56Z" />
  </g>
</svg>